<svg xmlns="http://www.w3.org/2000/svg" version="1.1" width="600px" height="600px" viewBox="0 0 200 200" style="overflow:hidden!important;"><g id="svga-group-wrapper"><g id="svga-group-backs-single"><path id="SvgjsPath4791" d="M0 0h200v200H0V0z" fill="#ecf0f1" stroke-width="none" opacity="1" stroke="none"></path></g><g id="svga-group-humanwrap-move" transform="matrix(1,0,0,1,0,-6)"><g id="svga-group-humanwrap"><g id="svga-group-hair-back-move" transform="matrix(1,0,0,1,0,0)"><g id="svga-group-hair-back"></g></g><g id="svga-group-humanbody-back"><path id="SvgjsPath4742" d="m170 180.3-27.3-6.9-18-9.9-1.5-28.2H76.8l-1.5 28.2-18 9.9-27.3 6.9-9.1 19.7-3 20h164.2l-3-20z" fill="#b2713b" stroke-width="none" opacity="1" stroke="none"></path><path id="SvgjsPath4743" d="m76.8 135.3-1.5 28.2-18 9.9-27.3 6.9-9.1 19.7-3 20h14.6v-20l2.7-17.7 23.8-6.4 24.7-8.3 3.5-32.3z" fill="#934d13" stroke-width="none" opacity="1" stroke="none"></path></g><g id="svga-group-chinshadow-single"><path id="SvgjsPath5035" d="m122.4 140.2 1-1-.2-3.9H76.8l-.5 9.2 13.8 13.8h14.3z" fill="#843e04" stroke-width="none" opacity="1" stroke="none"></path></g><g id="svga-group-humanbody-front"><path id="SvgjsPath4744" d="m92.8 168.3 2 7.9 6.9 4.6s-8.5-3-8.7-3.6c-.2-.6-.2-8.9-.2-8.9z" fill="#934d13" stroke-width="none" opacity="1" stroke="none"></path></g><g id="svga-group-clothes-single"><path id="SvgjsPath9967" d="m184.7 220-8.1-35.4-4.8-3.5-1.5-2-17.6-6.8-8.6-15.9-3.8-1.6-7.3-9-9.4-3.1.6 11-1.3 10.1-8.9 9.1-8.1 9.8-2.5 5-1.7-3.2-4.5-3.8-11.2-7.8-8.9-9.1-1.3-10.1.6-11-9.4 3.1-7.3 9-3.8 1.6-8.6 15.9-17.6 6.8-1.5 2-4.8 3.5-8.1 35.4z" fill="#386e77" stroke-width="none" opacity="1" stroke="none"></path><path id="SvgjsPath9968" d="m134.2 188.8-15 3.8-9.9.2-.1-1.7 1.3-.1-.7-2.3-3.2.3-.1 2.3.8-.1v1.6h-2.1l2.1.2.1 5.9-.7 7.4 1.6 7.5.3 4.8 2.6-1-.3-5.1-2-6.6.9-7.3-.3-5.6 9.7.7 15.8-4.1 16-12.2 2-5.3-3.2 4.1-15.6 12.6zm-32.2 4.3-2.5-.2.2-1.8.6.1 1.2-2.2-3.3-2.3-2 1.9 1.2 2.3h.1v1.9l-1.5-.1-26-6.9-15.8-11 1.9-11L59 160l11 18.7 17.7 7.2-14.8-7.9-8.1-12.4 2.2-19.8-7.2 8.9-3.8 1.7-8.6 15.8-17.7 6.8-1.5 2-4.8 3.5-8.1 35.5h10.2l1.3-14.3 3.3-18.1 2.9 2.6 2.6 13.9 1.2 15.9v-16.2l-2.6-15.3-2.2-4.3 1.4-1.7 16.7-6L69 187.3l26.8 6.2 1.5-.1-.1 3.4 1.4 9.9s-3 9.8-2.8 9.9c.3.2 1.7 2.8 1.8 2.6.1-.3 3.5-12.5 3.5-12.5l-1.9-10.4.3-3.1 2.5-.1zm-26.2-39.4.6-10.8-4 5.1-.7 8.4 5.4 7.5-1.3-10.2zm49.1 11 6.7-6.9-.7-10.8-7.3-4.3.6 11-1.3 10.2-8.9 9.1-8.1 9.8-2.5 5 6.5-8.5 15-14.6zm-18.1 22.4 22.9-5 11.2-13.4 3.2-12.3-3.8-1.7-2.4 13-8.6 13.1-22.5 6.3zm56.5 9.7.8 21.6.5-20.4 4.5-13.1-5.8 11.9z" fill="#265e68" stroke-width="none" opacity="1" stroke="none"></path><path id="SvgjsPath9969" d="m137.4 165.7 1.2-10.5-6-6.2 1.4 10.3-10.3 16.1-14 8.7 18.6-4.5 9.1-13.9zm13.6 6.2-6.2-10.1c.2.6-2.1 9.5-2.1 9.5l-10.3 12.4-15.5 7.2 16.7-3.1 15.7-12.6 1.7-3.3zm24.8 14-3.7-1.9-2.3 5.6 3.9 9.3 3.9 19.2 4.1.2-5.9-32.4zm-7.7-6.5-14.4-4.8-2.5 5-8.3 5.6 19.4.6 4.5 1.2 3.7-5.6-2.4-2zM85 175.6l-10.1-10.3-3.7-7.4-1.4.6 3.1 11.6 11.6 9.1 14.4 5.6 3.1 3.9-3.3-5.6-13.7-7.5zm43.1-12.5-16.7 16.1-6.6 8.5 13.4-11.6 9.9-13z" fill="#4d7e86" stroke-width="none" opacity="1" stroke="none"></path></g><g id="svga-group-head" transform="matrix(1,0,0,1,0,0)"><g id="svga-group-ears-left-move" transform="matrix(1,0,0,1,0,0)"><g id="svga-group-ears-left"><path id="SvgjsPath5816" d="m64.4 98.3-5.3-9.7-7-.9-2 7.2.4 8.9 7 11.4 6.1 4.5 3.8-11.6z" fill="#b2713b" stroke-width="none" opacity="1" stroke="none"></path><path id="SvgjsPath5817" d="m58.4 101.2-4.1-9.8-1.9 5.1.4 5 2.6 6.1-1.6-9.4 1.5-.7 1.3 10.8 2 2.1z" fill="#934d13" stroke-width="none" opacity="1" stroke="none"></path><path id="SvgjsPath5818" d="m60.7 101-3.2-11.6-5.4-1.7 7 .9 5.3 9.7 3 9.8-3.8 11.6-6.1-4.5 3.6.7z" fill="#a35e26" stroke-width="none" opacity="1" stroke="none"></path></g></g><g id="svga-group-ears-right-move" transform="matrix(1,0,0,1,0,0)"><g id="svga-group-ears-right"><path id="SvgjsPath5819" d="m135.6 98.3 5.3-9.7 7-.9 2 7.2-.4 8.9-7 11.4-6.1 4.5-3.8-11.6z" fill="#b2713b" stroke-width="none" opacity="1" stroke="none"></path><path id="SvgjsPath5820" d="m141.6 101.2 4.1-9.8 1.9 5.1-.4 5-2.6 6.1 1.6-9.4-1.5-.7-1.3 10.8-2 2.1z" fill="#934d13" stroke-width="none" opacity="1" stroke="none"></path><path id="SvgjsPath5821" d="m139.3 101 3.2-11.6 5.4-1.7-7 .9-5.3 9.7-3 9.8 3.8 11.6 6.1-4.5-3.6.7z" fill="#a35e26" stroke-width="none" opacity="1" stroke="none"></path></g></g><g id="svga-group-faceshape-wrap"><g id="svga-group-faceshape-single"><path id="SvgjsPath5025" d="M138.1 60c-6.9-11.6-19.7-19.5-19.7-19.5-7.2-1.5-18.4-2.3-18.4-2.3s-11.1.8-18.4 2.3c0 0-12.8 7.9-19.7 19.5 0 0-5.1 14.5-5.3 24.8l1.2 18.7 9.1 23.5 8 7.6 18 18.1h14.2l18-18.1 8-7.6 9.1-23.5 1.2-18.7c-.2-10.3-5.3-24.8-5.3-24.8z" fill="#b2713b" stroke-width="none" opacity="1" stroke="none"></path><path id="SvgjsPath5026" d="m93.2 150.3-24.4-24.7-7.7-23.7.3-18 4.3-22.1 17.4-18 16.7-4 18.6.7c-7.2-1.5-18.4-2.3-18.4-2.3s-11.1.8-18.4 2.3c0 0-12.8 7.9-19.7 19.5 0 0-5.1 14.5-5.3 24.8l1.2 18.7 9.1 23.5 8 7.6 18 18.1h14.2l18-18.1 8-7.6-27 23.4H93.2v-.1z" fill="#934d13" stroke-width="none" opacity="1" stroke="none"></path></g></g><g id="svga-group-mouth-single-move" transform="matrix(1,0,0,1,0,0)"><g id="svga-group-mouth-single"><path id="SvgjsPath7585" d="m111.71 128.99-5.84-1.83-3.28-.34h-5.18l-3.28.34-5.68 1.83-2.35 1 1.57 2.22 7.2 3.17h10.26l7.2-3.17 1.57-2.22z" fill="#da7c87" stroke-width="none" opacity="1" transform="translate(0 2)" stroke="none"></path><path id="SvgjsPath7586" d="m83.15 129.56 6.2 1.7h19.9l7.6-2.1-8.3 1.1h-19.3z" fill="#cb5f6c" stroke-width="none" opacity="1" transform="translate(0 2)" stroke="none"></path></g></g><g id="svga-group-eyes-left-move" transform="matrix(1,0,0,1,0,0)"><g id="svga-group-eyes-left"><g id="svga-group-eyesback-left"><path id="SvgjsPath6828" d="m90.8 100-2.5-7L77 89.8 69.6 92l5.6 8.3z" fill="#ffffff" stroke-width="none" opacity="1"></path></g><g id="svga-group-eyesiriswrapper-left" transform="matrix(1,0,0,1,0,0)"><g id="svga-group-eyesiriscontrol-left" transform="matrix(1,0,0,1,0,0)"><g id="svga-group-eyesiris-left"><path id="SvgjsPath7470" d="m82.2 100.2-5.5-2-1-5.8 4.5-3.8 5.5 2.1 1 5.7z" fill="#5f4626" stroke-width="none" opacity="1" stroke="none"></path><path id="SvgjsPath7471" d="m78.2 95.4.6-3.1 3-1 2.4 2.1-.7 3.1-3 1z" fill="#000000" stroke-width="none" opacity="1"></path><path id="SvgjsPath7472" d="m78 91.7 2.2 2.1.6-.4-1.2-2.7z" fill="#ffffff" stroke-width="none" opacity="1"></path><path id="SvgjsPath7473" d="m82.1 96.4.5 1 .8-.4-.4-1z" fill="#ffffff" stroke-width="none" opacity="1"></path></g></g></g><g id="svga-group-eyesfront-left"><path id="SvgjsPath6836" d="M67.1 89.3v11.9l7.9 8.4h11.2l7.9-8.4V89.3l-7.9-8.4H75l-7.9 8.4zm2.5 2.7 7.4-2.2L88.3 93l2.5 7-15.6.3-5.6-8.3z" fill="#b2713b" stroke-width="none" opacity="1" stroke="none"></path><path id="SvgjsPath6837" d="m91.2 101.3-2.1-8.9-6.5-2.6-6.2-1-8.4 3.7 9-2.5 11 3.3z" fill="#000000" stroke-width="none" opacity="1" stroke="none"></path></g></g></g><g id="svga-group-eyes-right-move" transform="matrix(1,0,0,1,0,0)"><g id="svga-group-eyes-right"><g id="svga-group-eyesback-right"><path id="SvgjsPath6829" d="m109.2 100 2.5-7 11.3-3.2 7.4 2.2-5.6 8.3z" fill="#ffffff" stroke-width="none" opacity="1"></path></g><g id="svga-group-eyesiriswrapper-right" transform="matrix(1,0,0,1,0,0)"><g id="svga-group-eyesiriscontrol-right" transform="matrix(1,0,0,1,0,0)"><g id="svga-group-eyesiris-right"><path id="SvgjsPath7474" d="m119.8 100.2-5.5-2-1-5.8 4.5-3.8 5.5 2.1 1 5.7z" fill="#5f4626" stroke-width="none" opacity="1" stroke="none"></path><path id="SvgjsPath7475" d="m115.8 95.4.7-3.1 3-1 2.3 2.1-.6 3.1-3 1z" fill="#000000" stroke-width="none" opacity="1"></path><path id="SvgjsPath7476" d="m115.7 91.7 2.2 2.1.6-.4-1.2-2.7z" fill="#ffffff" stroke-width="none" opacity="1"></path><path id="SvgjsPath7477" d="m119.7 96.4.6 1 .8-.4-.4-1z" fill="#ffffff" stroke-width="none" opacity="1"></path></g></g></g><g id="svga-group-eyesfront-right"><path id="SvgjsPath6838" d="M125 80.8h-11.2l-7.9 8.4v11.9l7.9 8.4H125l7.9-8.4V89.3l-7.9-8.5zm-.2 19.5-15.6-.3 2.5-7 11.3-3.2 7.4 2.2-5.6 8.3z" fill="#b2713b" stroke-width="none" opacity="1" stroke="none"></path><path id="SvgjsPath6841" d="m108.8 101.3 2.1-8.9 6.5-2.6 6.2-1 8.4 3.7-9-2.5-11 3.3z" fill="#000000" stroke-width="none" opacity="1" stroke="none"></path></g></g></g><g id="svga-group-facehighlight-single"></g><g id="svga-group-eyebrows-left-move" transform="matrix(1,0,0,1,0,0)"><g id="svga-group-eyebrows-left-rotate" transform="matrix(1,1.7453292519943295e-9,-1.7453292519943295e-9,1,1.4451326535436237e-7,-1.3849188462700113e-7)"><g id="svga-group-eyebrows-left"><path id="SvgjsPath7817" d="M92.8 80.6 91.1 86l-2.4 1-14.1-2.3-3.3 1.1-5.1 3.3s3.4-5.3 3.5-5.7c.1-.3 2.5-4.1 2.5-4.1l11.6.6 9 .7z" fill="#2a232b" stroke-width="none" opacity="1"></path><path id="SvgjsPath7818" d="m77.5 85.3-.4-.1-1.2-2.9-3.8-2.8 1.8.5 3.1 1.8c.1 0 .3 2.1.5 3.5zm2.9.4h-.2c.1-.9.1-2.4.1-2.6 0-.2.6-1.5 1.1-2.6l.3.1c-.4 1.6-.9 3.9-1.3 5.1zm4.6.8 5.6-5.6h.6c-.8 1.4-2 3.3-2.2 3.5-.2.1-1.8 1.2-3.3 2.2l-.7-.1zm.1-5.6h.2l-1.5 3.6-1.3 1.6-.4-.1 3-5.1zm-16.1 4c1.4-.5 2.6-1 2.8-1 .2-.1 1.3.5 2.2 1.1l-.8.3c-.6-.1-1-.2-1.1-.3-.1 0-1.8.3-3.5.7.1-.3.3-.5.4-.8z" fill="#1b141c" stroke-width="none" opacity="1"></path></g></g></g><g id="svga-group-eyebrows-right-move" transform="matrix(1,0,0,1,0,0)"><g id="svga-group-eyebrows-right-rotate" transform="matrix(1,1.7453292519943295e-9,-1.7453292519943295e-9,1,1.4451326535436237e-7,-2.1057397248114285e-7)"><g id="svga-group-eyebrows-right"><path id="SvgjsPath7819" d="m107.2 80.6 1.8 5.5 2.4 1 14.1-2.3 3.3 1.1 5.1 3.3s-3.4-5.3-3.5-5.7c-.1-.3-2.5-4.1-2.5-4.1l-11.6.6-9.1.6z" fill="#2a232b" stroke-width="none" opacity="1"></path><path id="SvgjsPath7820" d="m122.5 85.3.4-.1 1.2-2.9 3.8-2.8-1.8.5-3.1 1.8c-.1 0-.3 2.1-.5 3.5zm-2.9.4h.2c-.1-.9-.1-2.4-.1-2.6 0-.2-.6-1.5-1.1-2.6l-.3.1c.4 1.6.9 3.9 1.3 5.1zm-4.6.8-5.6-5.6h-.6c.8 1.4 2 3.3 2.2 3.5.2.1 1.8 1.2 3.3 2.2l.7-.1zm-.1-5.6h-.2l1.5 3.6 1.3 1.6.4-.1-3-5.1zm16.1 4c-1.4-.5-2.6-1-2.8-1-.2-.1-1.3.5-2.2 1.1l.8.3c.6-.1 1-.2 1.1-.3.1 0 1.8.3 3.5.7-.1-.3-.3-.5-.4-.8z" fill="#1b141c" stroke-width="none" opacity="1"></path></g></g></g><g id="svga-group-beardwrap"><g id="svga-group-beard-single-move" transform="matrix(1,0,0,1,0,0)"><g id="svga-group-beard-single"></g></g></g><g id="svga-group-mustache-single-move" transform="matrix(1,0,0,1,0,0)"><g id="svga-group-mustache-single"></g></g><g id="svga-group-nose-single-move" transform="matrix(1,0,0,1,0,0)"><g id="svga-group-nose-single"><path id="SvgjsPath4796" d="m96.12 99.91-.45 6.4-5.78 8.87 2.98 2.25 1.63-2.02 4.32 3.82h2.41l4.27-3.82 1.57 1.96 3.15-2.19-5.79-8.92-.56-6.46-3.82-1.63z" fill="#b2713b" stroke-width="none" opacity="1" transform="translate(0 1)" stroke="none"></path><path id="SvgjsPath4797" d="m104.86 106.44-1.95-15.67 1.1 14.55-.86-.22 6.58 10.06-2.34 1.73-1.28-1.51.28-1.34-5.15 4.47h-2.4l-5.15-4.47.29 1.34-1.29 1.51-2.34-1.73 6.59-10.06-.86.22 1.33-22.81-2.19 23.93-5.82 8.83 3.81 2.79 1.44-2.01 4.19 3.91h2.4l4.2-3.91 1.43 2.01 3.81-2.79z" fill="#934d13" stroke-width="none" opacity="1" transform="translate(0 1)" stroke="none"></path><path id="SvgjsPath4798" d="m96.15 113.17 2.37 1.46 3.1.06 2.55-1.16-.3-1.76-3.59-.6-3.94.66z" fill="#ba7b47" stroke-width="none" opacity="1" transform="translate(0 1)" stroke="none"></path></g></g><g id="svga-group-hair-front"><path id="SvgjsPath10254" d="m54.24 85.14 4.35 11.46 3.16 2.56 4.74-40.3 5.14-7.12 10.47-2.57 17.59 4.15 16.59-3.95 10.87 1.98 6.13 6.91 5.73 39.72 3.36-4.94 2.56-8.5-.59-4.94 1.19-6.91-1.58-4.75.59-7.7-2.17-4.74-.6-6.92-6.52-6.91-7.11-13.44-14.03-7.11-10.87 2.37-4.74-2.77-3.56 1.58-13.23.99-5.54 6.13-8.3 2.56-1.18 3.56-9.49 9.29-.19 11.26-2.37 7.9 1.77 2.57-3.16 7.12 1.58 5.53z" fill="#2a232b" stroke-width="none" opacity="1"></path><path id="SvgjsPath10255" d="M138.83 80.27c-.22-.9-4.49-22.91-4.49-22.91l-6.74-7.19-11.68-2.02-16.85 3.82-12.13-10.56 1.57-11.23 9.88-7.41 4.72 2.25 11-3.9-10.87 2.37-4.74-2.77-3.56 1.58-13.24.99-5.53 6.13-8.3 2.57-1.19 3.56-9.48 9.29L57 56.1 54.63 64l1.78 2.57-3.16 7.11 1.58 5.53-.59 5.93 4.35 11.46 3.16 2.57.36-3.05-5.72-9.77v-5.39l6.53 8.22.37-3.11-7.8-12.52 2.25-4.94 6.45 9.86.85-7.2-5.05-10.3-.9-14.38 8.09-7.86-2.25 8.09 1.56 12.05 5.14-7.11-2.88-6.51 8.54-14.38 8.98-6.29-6.51 19.99 3.82 4.96 16.11 3.8 16.6-3.95 10.87 1.98 6.13 6.92L139.02 98c-.01-.02.03-16.83-.19-17.73z" fill="#1b141c" stroke-width="none" opacity="1"></path><path id="SvgjsPath10256" d="m102.27 27.16-.99 10.36 13.49 10.19-11.68-11.02z" fill="#1b141c" stroke-width="none" opacity="1"></path><path id="SvgjsPath10257" d="m134.23 42.76.15 9.18-.47 3.32 1.74-4.43.63-6.02z" fill="#1b141c" stroke-width="none" opacity="1"></path><path id="SvgjsPath10258" d="M140.72 58.74c-.32.47-2.53 8.55-2.53 8.55l-1.58 2.69 2.85-2.22 2.37-8.23-1.11-.79z" fill="#1b141c" stroke-width="none" opacity="1"></path></g><g id="svga-group-glasses-single-move" transform="matrix(1,0,0,1,0,0)"><g id="svga-group-glasses-single"></g></g></g></g></g><rect id="svga-credit-rect" width="200" height="15" x="0" y="185" fill="#ecf0f1" opacity="0.5" style="display: none;"></rect><text id="svga-credit-text" font-family="Avenir Next, Roboto, Helvetica, Arial, sans-serif" font-size="10px" text-anchor="start" font-weight="400" size="10px" anchor="start" weight="400" fill="#333333" x="33.40447998046875" y="182.60824704170227" style="display: none;"><tspan id="SvgjsTspan4603" dy="13" x="33.40447998046875">Created on AvatarMaker.com</tspan></text></g><defs id="SvgjsDefs4550"></defs></svg>